<svg width="93" height="93" viewBox="0 0 65 73" fill="none" xmlns="http://www.w3.org/2000/svg">
<path d="M46.8028 0.0356598C46.6662 0.0715942 42.4259 1.3365 37.3878 2.84577L28.2244 5.59119L18.0764 5.62713L7.93558 5.66307L7.74153 5.84274C7.63373 5.94336 7.51155 6.0871 7.46843 6.16615C7.41093 6.26678 7.36781 7.16515 7.34625 9.04095L7.31031 11.7648L4.61519 12.5769C3.13468 13.0225 1.58229 13.4825 1.16544 13.6047C0.583296 13.77 0.367687 13.8706 0.21676 14.0287C-0.207272 14.4959 -0.415694 13.6694 3.63776 27.3534L7.34625 39.8444V52.9247C7.34625 67.1118 7.32469 66.2637 7.74153 66.6446L7.93558 66.8243L11.6081 66.8458C13.6277 66.853 15.3094 66.889 15.3382 66.9177C15.3741 66.9536 15.7191 68.0604 16.1072 69.39C16.5025 70.7196 16.8762 71.9055 16.9337 72.0277C16.9984 72.1498 17.1493 72.2936 17.2643 72.3583C17.6883 72.5739 18.1698 72.502 20.2397 71.8839C22.3239 71.2658 23.8691 70.8059 28.2963 69.4835C29.8415 69.0235 32.1341 68.3407 33.3991 67.967C34.664 67.5861 35.9576 67.1908 36.2738 67.0902L36.8488 66.8962L46.9609 66.8602L57.0658 66.8243L57.2598 66.6446C57.3676 66.544 57.4898 66.4003 57.5329 66.3212C57.5904 66.2206 57.6336 65.3222 57.6551 63.4536L57.6911 60.7225L60.9611 59.7451C62.7579 59.2061 64.2959 58.7317 64.375 58.6886C64.8852 58.4083 65.108 57.8765 64.9499 57.2728C64.8924 57.0715 63.2322 51.4441 61.2558 44.7746L57.6551 32.6358V19.5483C57.6551 7.22264 57.6479 6.43926 57.5258 6.20209C57.4611 6.06554 57.2958 5.87868 57.1592 5.79243L56.9149 5.62713H53.2998C50.9497 5.62713 49.6704 5.59838 49.6416 5.55526C49.6201 5.51214 49.2751 4.39816 48.887 3.08294C48.4989 1.76054 48.1252 0.596245 48.0605 0.495628C47.809 0.114716 47.2556 -0.0865173 46.8028 0.0356598ZM47.1621 4.76469C48.348 8.83253 53.9682 27.8565 58.3307 42.5682C61.2199 52.3281 62.571 56.9925 62.5135 57.0212C62.3985 57.0859 59.8543 57.8549 51.5462 60.3201C47.5359 61.5131 42.6343 62.9649 40.6579 63.5542C36.5182 64.7832 29.1947 66.9608 22.9779 68.8007C20.6062 69.505 18.6586 70.0728 18.6514 70.0656C18.637 70.0512 2.53097 15.5667 2.53097 15.5236C2.53097 15.4589 3.24967 15.2433 18.5939 10.694C34.4484 5.99367 41.0604 4.02444 44.2873 3.05419C45.4516 2.70203 46.4291 2.43611 46.4506 2.45767C46.4794 2.47923 46.7956 3.52135 47.1621 4.76469ZM20.4266 7.85509C20.3259 7.89103 17.8895 8.6241 15.0004 9.47935C12.1184 10.3346 9.71076 11.0533 9.66764 11.0677C9.59577 11.0964 9.57421 10.7443 9.57421 9.44342V7.78323L15.0938 7.79041C18.3783 7.79041 20.5344 7.81916 20.4266 7.85509ZM55.42 16.386C55.42 21.1223 55.4056 24.9601 55.3912 24.9242C55.3194 24.7445 50.3244 7.89822 50.3244 7.84791C50.3244 7.81197 51.4743 7.78323 52.8758 7.78323H55.4272L55.42 16.386ZM12.1615 56.1085C13.5414 60.7657 14.677 64.6035 14.677 64.6394C14.677 64.6754 13.5845 64.7041 12.1256 64.7041H9.57421L9.5814 56.0941C9.5814 51.3651 9.59577 47.5201 9.61015 47.5632C9.63171 47.5991 10.7744 51.4441 12.1615 56.1085ZM55.4056 64.6826C55.3912 64.6969 52.9117 64.6969 49.9004 64.6897L44.4239 64.6682L45.9907 64.2082C46.8531 63.9495 49.3182 63.2164 51.4743 62.5768L55.3912 61.4125L55.4128 63.0367C55.42 63.9279 55.42 64.6682 55.4056 64.6826Z" fill="#657278"/>
<path d="M40.9526 11.1251C39.623 11.4629 38.3581 12.4835 37.7544 13.7125C36.9135 15.4158 37.1579 17.615 38.3293 18.9518C38.4874 19.1243 38.6096 19.2824 38.6096 19.3039C38.6096 19.3255 38.4371 19.4189 38.2359 19.5195C35.7564 20.6623 33.9309 23.0268 33.3703 25.8081C33.1475 26.8934 33.1044 27.7846 33.2481 28.338C33.7153 30.1419 36.0511 31.4212 39.7452 31.8883C40.9166 32.0393 43.3171 32.0393 44.5029 31.8955C48.0389 31.4571 50.4322 30.221 51.0215 28.532C51.2875 27.763 51.1437 26.1891 50.6766 24.7804C49.9722 22.6602 48.1971 20.5976 46.2135 19.5986C45.9403 19.462 45.7247 19.3327 45.7247 19.3111C45.7247 19.2896 45.8541 19.1243 46.0122 18.9374C46.1703 18.7577 46.4291 18.3624 46.58 18.0534C47.7083 15.7967 46.8747 12.9722 44.697 11.6785C43.9352 11.2186 43.353 11.0676 42.3109 11.0389C41.6569 11.0245 41.2472 11.0533 40.9526 11.1251ZM42.929 13.2884C43.7411 13.5328 44.2802 13.9999 44.6467 14.7689C45.4229 16.4076 44.3736 18.384 42.5984 18.6212C41.3407 18.7865 40.2698 18.2115 39.7092 17.0688C39.4577 16.5585 39.4361 16.4794 39.4433 15.9117C39.4505 15.2217 39.5727 14.8336 39.9536 14.2946C40.586 13.3962 41.851 12.9722 42.929 13.2884ZM43.698 20.9426C46.5512 21.5966 48.772 24.1767 48.9373 27.0515C48.9733 27.6983 48.9661 27.763 48.8151 27.9786C48.3264 28.6614 46.6519 29.3082 44.6395 29.5957C40.931 30.1203 36.3888 29.3298 35.512 28.0002C35.2246 27.5761 35.3827 26.0238 35.8139 24.9816C37.1075 21.8697 40.392 20.1879 43.698 20.9426Z" fill="#657278"/>
<path d="M23.2295 15.6529C23.0498 15.7032 21.519 16.1704 19.8157 16.695C18.1195 17.2197 15.0651 18.154 13.0312 18.7793C11.0044 19.4045 9.25799 19.9723 9.15737 20.0514C8.85552 20.2741 8.6974 20.5401 8.66147 20.8707C8.59678 21.4672 9.11425 21.9415 9.81138 21.9415C10.0629 21.9415 11.4428 21.5462 14.6267 20.5688C17.0846 19.8142 20.1966 18.8583 21.5405 18.4487C22.8845 18.039 24.0919 17.6509 24.2213 17.5934C24.7028 17.3706 24.8753 16.7382 24.595 16.1991C24.3507 15.7104 23.8116 15.4948 23.2295 15.6529Z" fill="#657278"/>
<path d="M23.9123 22.5166C23.1648 22.7537 20.0241 23.7168 16.9481 24.6655C13.8721 25.607 11.2632 26.4478 11.1626 26.5269C10.5014 27.0156 10.487 27.9571 11.1482 28.3021C11.6585 28.5608 11.795 28.5249 18.5077 26.4622C21.9934 25.3985 25.17 24.4211 25.5581 24.2989C26.3559 24.0618 26.6433 23.839 26.7224 23.4077C26.8446 22.7393 26.2912 22.0853 25.6012 22.0925C25.4144 22.0925 24.6885 22.2722 23.9123 22.5166Z" fill="#657278"/>
<path d="M20.8936 30.5372C17.372 31.6153 14.2385 32.5855 13.9151 32.6861C13.1604 32.9161 12.8801 33.1101 12.7076 33.527C12.4417 34.1666 12.7651 34.72 13.4982 34.8853C13.8863 34.9716 13.8863 34.9716 16.488 34.1738C17.9254 33.7282 21.102 32.758 23.5528 32.0105C26.0036 31.2559 28.1094 30.5875 28.2387 30.5228C28.6843 30.2928 28.8352 29.5742 28.5262 29.1214C28.289 28.762 27.9369 28.5536 27.5847 28.5608C27.4194 28.5608 24.559 29.4017 20.8936 30.5372Z" fill="#657278"/>
<path d="M48.9231 33.7283C47.7803 34.0732 45.3511 34.8135 43.5328 35.3669C36.123 37.6308 31.6384 38.9963 29.6979 39.5856C28.5695 39.9306 27.5418 40.2756 27.4124 40.3547C27.283 40.4337 27.1106 40.6278 27.0315 40.7931C26.6506 41.5333 27.1609 42.2808 28.0449 42.2808C28.2245 42.2808 30.3447 41.6699 33.3848 40.7427C39.3356 38.9244 47.8091 36.3443 49.9077 35.7047C50.727 35.4603 51.5032 35.1872 51.6469 35.101C51.7907 35.0075 51.9631 34.8135 52.0494 34.6194C52.38 33.9439 52.0063 33.3042 51.187 33.1317C51.072 33.1102 50.2239 33.333 48.9231 33.7283Z" fill="#657278"/>
<path d="M47.6221 41.3393C44.6323 42.252 42.4187 42.9707 42.2965 43.057C42.0162 43.251 41.8438 43.6175 41.8438 44.0056C41.8438 44.25 41.8869 44.3506 42.0809 44.5447C42.3109 44.7746 42.7134 44.9399 43.0368 44.9399C43.123 44.9399 43.6117 44.8106 44.1148 44.6596C44.6251 44.5015 46.9106 43.8044 49.196 43.1144C51.4815 42.4173 53.4435 41.7992 53.5585 41.7417C54.076 41.4758 54.2844 40.7284 53.9754 40.2684C53.767 39.9522 53.3932 39.7653 53.0195 39.7725C52.8614 39.7725 50.4322 40.484 47.6221 41.3393Z" fill="#657278"/>
<path d="M19.363 42.7479C15.6689 43.8762 15.288 44.0056 15.0652 44.2284C14.6555 44.6237 14.5765 45.1627 14.864 45.5795C15.0221 45.8023 15.5108 46.0179 15.863 46.0179C16.0283 46.0179 17.8681 45.4933 20.2686 44.7674C24.6311 43.4522 24.6526 43.445 24.8179 42.9491C25.0407 42.2592 24.3795 41.4686 23.589 41.4973C23.4883 41.4973 21.591 42.0579 19.363 42.7479Z" fill="#657278"/>
<path d="M36.8128 44.5806C35.5263 44.9902 31.5376 46.212 21.9717 49.1443C19.4419 49.9133 17.293 50.6104 17.1924 50.6823C16.7396 51.0057 16.5599 51.6166 16.7827 52.055C16.9121 52.3066 17.293 52.5437 17.6667 52.6012C17.9398 52.6372 18.3063 52.5509 20.369 51.9113C28.7778 49.3312 33.1978 47.98 35.8785 47.1535C37.5603 46.6432 39.0264 46.1689 39.1342 46.1114C39.4073 45.9748 39.6445 45.4502 39.5798 45.134C39.4576 44.5734 38.9545 44.1422 38.4227 44.1565C38.2646 44.1565 37.5459 44.3506 36.8128 44.5806Z" fill="#657278"/>
<path d="M43.9279 49.5539C36.1084 51.9616 33.1186 52.9103 32.939 53.0396C32.5077 53.3702 32.3784 53.9739 32.6443 54.4123C32.8096 54.6855 33.2768 54.9226 33.6361 54.9298C33.8517 54.9298 55.2042 48.404 55.4989 48.2459C55.7361 48.1166 56.0667 47.671 56.117 47.4194C56.232 46.8157 55.6426 46.2264 54.9383 46.2407C54.7946 46.2407 49.8356 47.7356 43.9279 49.5539Z" fill="#657278"/>
<path d="M56.2538 53.0253C55.9807 53.1188 53.7455 53.8159 51.2947 54.5705C48.844 55.3252 46.731 56.0007 46.5945 56.0654C46.4292 56.1517 46.307 56.2882 46.2064 56.5038C45.9764 57.0285 46.1417 57.5316 46.652 57.8334C47.1407 58.1209 47.2916 58.085 52.4087 56.4895C55.0392 55.6701 57.3103 54.9443 57.454 54.8868C58.1439 54.5849 58.417 53.8806 58.0577 53.3416C57.7055 52.8241 57.1378 52.7307 56.2538 53.0253Z" fill="#657278"/>
<path d="M28.2964 54.3477C27.9442 54.4627 25.8743 55.0951 23.6967 55.7491C21.5262 56.4103 19.6217 56.9997 19.4707 57.0644C19.0683 57.2368 18.8239 57.589 18.788 58.0418C18.7664 58.3508 18.788 58.4514 18.9245 58.6239C19.1186 58.8755 19.5857 59.0911 19.9163 59.0983C20.1966 59.0983 29.6259 56.2666 29.9278 56.0941C30.3446 55.8498 30.474 55.1454 30.1865 54.7142C29.7769 54.1177 29.3025 54.0243 28.2964 54.3477Z" fill="#657278"/>
<path d="M40.0469 57.8765C38.358 58.4011 30.6104 60.78 22.9419 63.1302C22.0507 63.4033 21.2458 63.6836 21.1451 63.7554C20.6564 64.1148 20.5055 64.7257 20.7858 65.1856C20.9439 65.4587 21.2026 65.6025 21.6338 65.6672C21.9141 65.7103 23.1144 65.3581 32.2706 62.548C37.9483 60.8088 42.6917 59.3426 42.7995 59.2995C43.2882 59.1054 43.5757 58.7102 43.5829 58.2214C43.5901 57.6968 43.0367 57.2296 42.4186 57.2368C42.2246 57.2368 41.2759 57.4956 40.0469 57.8765Z" fill="#657278"/>
</svg>
